<?xml version="1.0" encoding="utf-8"?>
<!-- Generator: Adobe Illustrator 27.0.0, SVG Export Plug-In . SVG Version: 6.00 Build 0)  -->
<svg version="1.1" xmlns="http://www.w3.org/2000/svg" xmlns:xlink="http://www.w3.org/1999/xlink" x="0px" y="0px"
	 viewBox="0 0 100 100" style="enable-background:new 0 0 100 100;" xml:space="preserve">
<style type="text/css">
	.st0{display:none;}
	.st1{display:inline;fill:#161718;}
	.st2{fill:url(#SVGID_1_);}
	.st3{display:inline;}
	.st4{fill:none;stroke:#4EC44E;stroke-width:2.3404;stroke-miterlimit:10;}
</style>
<g id="Layer_1" class="st0">
	<rect class="st1" width="100" height="100"/>
</g>
<g id="Layer_2">
	<linearGradient id="SVGID_1_" gradientUnits="userSpaceOnUse" x1="0.1383" y1="50" x2="99.8741" y2="50">
		<stop  offset="7.142857e-02" style="stop-color:#5EE6DF"/>
		<stop  offset="0.1595" style="stop-color:#61E2E0"/>
		<stop  offset="0.2475" style="stop-color:#69D6E1"/>
		<stop  offset="0.3354" style="stop-color:#78C2E4"/>
		<stop  offset="0.4228" style="stop-color:#8CA6E9"/>
		<stop  offset="0.4975" style="stop-color:#A188ED"/>
		<stop  offset="0.5459" style="stop-color:#A975C7"/>
		<stop  offset="0.6008" style="stop-color:#B164A4"/>
		<stop  offset="0.6591" style="stop-color:#B85587"/>
		<stop  offset="0.7209" style="stop-color:#BD4A70"/>
		<stop  offset="0.7877" style="stop-color:#C04260"/>
		<stop  offset="0.8632" style="stop-color:#C23D57"/>
		<stop  offset="0.9659" style="stop-color:#C33C54"/>
	</linearGradient>
	<path class="st2" d="M27.4,76.3L0.1,51.2l27.2-25.1l7.8,8.6L16.9,51.1l18.3,16.6L27.4,76.3z M42.8,84.5H30.9l27-69h12L42.8,84.5z
		 M72.6,76.3l-7.7-8.6l18.2-16.5L64.9,34.7l7.7-8.6l27.3,25.1L72.6,76.3z"/>
</g>
<g id="Layer_2_copy" class="st0">
	<g class="st3">
		<path class="st4" d="M28.6,74.7L3.1,51.2l25.5-23.4l5.9,6.5L15.8,51.1l18.7,17L28.6,74.7z"/>
		<path class="st4" d="M41.4,83.7h-8.9l26.4-67.3h9L41.4,83.7z"/>
		<path class="st4" d="M70.9,27.7l25.5,23.4L70.9,74.7L65,68.1l18.7-16.9L65,34.3L70.9,27.7z"/>
	</g>
</g>
</svg>
